<svg width="37" height="36" viewBox="0 0 37 36" fill="none" xmlns="http://www.w3.org/2000/svg">
<path d="M14.9872 13.5567C18.9104 10.4526 22.8498 8.16478 26.0358 6.9678C27.6316 6.36826 29.0111 6.05284 30.0909 6.02994C31.1808 6.00682 31.8653 6.28036 32.2249 6.73486C32.5845 7.18936 32.6933 7.91837 32.4201 8.97376C32.1495 10.0193 31.5253 11.2893 30.5748 12.7044C28.6772 15.5298 25.5447 18.8374 21.6215 21.9415C17.6983 25.0456 13.759 27.3334 10.5729 28.5304C8.97712 29.13 7.59765 29.4454 6.51786 29.4683C5.42794 29.4914 4.74348 29.2179 4.38387 28.7634C4.02426 28.3089 3.91547 27.5798 4.18863 26.5245C4.45926 25.4789 5.08348 24.2089 6.03396 22.7938C7.93159 19.9684 11.0641 16.6608 14.9872 13.5567Z" stroke="black"/>
<path d="M21.3699 13.3694C25.4684 16.2381 28.7895 19.3563 30.8495 22.0655C31.8813 23.4225 32.579 24.6537 32.9104 25.6816C33.245 26.7191 33.1792 27.4533 32.8468 27.9281C32.5145 28.4029 31.8472 28.7161 30.7578 28.7569C29.6786 28.7974 28.283 28.5634 26.6548 28.0585C23.404 27.0504 19.3373 24.9975 15.2388 22.1288C11.1403 19.2601 7.81928 16.1419 5.75923 13.4327C4.7274 12.0757 4.02978 10.8445 3.6983 9.81663C3.36372 8.77908 3.42958 8.04494 3.76192 7.57013C4.09425 7.09533 4.76149 6.78212 5.85089 6.74128C6.93017 6.70083 8.32576 6.93481 9.95398 7.43973C13.2047 8.44782 17.2715 10.5007 21.3699 13.3694Z" stroke="black"/>
<path d="M23.7037 18C23.7037 22.9318 23.0366 27.3759 21.972 30.5698C21.4388 32.1694 20.8149 33.4278 20.1464 34.276C19.4735 35.1298 18.8132 35.5 18.2037 35.5C17.5941 35.5 16.9338 35.1298 16.2609 34.276C15.5924 33.4278 14.9686 32.1694 14.4354 30.5698C13.3707 27.3759 12.7037 22.9318 12.7037 18C12.7037 13.0682 13.3707 8.62409 14.4354 5.43019C14.9686 3.83063 15.5924 2.57224 16.2609 1.72402C16.9338 0.870153 17.5941 0.5 18.2037 0.5C18.8132 0.5 19.4735 0.870153 20.1464 1.72402C20.8149 2.57224 21.4388 3.83063 21.972 5.43019C23.0366 8.62409 23.7037 13.0682 23.7037 18Z" stroke="black"/>
<circle cx="18.2037" cy="18" r="3" fill="black"/>
</svg>
